<svg xmlns="http://www.w3.org/2000/svg"  viewBox="0 0 64 64" width="64px" height="64px"><linearGradient id="UywsLlSaArhSLUaMKbZjMa" x1="26" x2="26" y1="29" y2="33" gradientUnits="userSpaceOnUse"><stop offset="0" stop-color="#6dc7ff"/><stop offset="1" stop-color="#e6abff"/></linearGradient><circle cx="26" cy="31" r="2" fill="url(#UywsLlSaArhSLUaMKbZjMa)"/><linearGradient id="UywsLlSaArhSLUaMKbZjMb" x1="32" x2="32" y1="29" y2="33" gradientUnits="userSpaceOnUse"><stop offset="0" stop-color="#6dc7ff"/><stop offset="1" stop-color="#e6abff"/></linearGradient><circle cx="32" cy="31" r="2" fill="url(#UywsLlSaArhSLUaMKbZjMb)"/><linearGradient id="UywsLlSaArhSLUaMKbZjMc" x1="26" x2="26" y1="35" y2="39" gradientUnits="userSpaceOnUse"><stop offset="0" stop-color="#6dc7ff"/><stop offset="1" stop-color="#e6abff"/></linearGradient><circle cx="26" cy="37" r="2" fill="url(#UywsLlSaArhSLUaMKbZjMc)"/><linearGradient id="UywsLlSaArhSLUaMKbZjMd" x1="32" x2="32" y1="35" y2="39" gradientUnits="userSpaceOnUse"><stop offset="0" stop-color="#6dc7ff"/><stop offset="1" stop-color="#e6abff"/></linearGradient><circle cx="32" cy="37" r="2" fill="url(#UywsLlSaArhSLUaMKbZjMd)"/><linearGradient id="UywsLlSaArhSLUaMKbZjMe" x1="32" x2="32" y1="19" y2="25.956" gradientUnits="userSpaceOnUse"><stop offset="0" stop-color="#6dc7ff"/><stop offset="1" stop-color="#e6abff"/></linearGradient><path fill="url(#UywsLlSaArhSLUaMKbZjMe)" d="M38,25.957H26c-1.105,0-2-0.895-2-2V21c0-1.105,0.895-2,2-2h12c1.105,0,2,0.895,2,2v2.957	C40,25.061,39.105,25.957,38,25.957z"/><linearGradient id="UywsLlSaArhSLUaMKbZjMf" x1="32" x2="32" y1="9" y2="55" gradientUnits="userSpaceOnUse"><stop offset="0" stop-color="#1a6dff"/><stop offset="1" stop-color="#c822ff"/></linearGradient><path fill="url(#UywsLlSaArhSLUaMKbZjMf)" d="M39,49H25c-2.757,0-5-2.243-5-5V20c0-2.757,2.243-5,5-5h14c2.757,0,5,2.243,5,5v24	C44,46.757,41.757,49,39,49z M25,17c-1.654,0-3,1.346-3,3v24c0,1.654,1.346,3,3,3h14c1.654,0,3-1.346,3-3V20c0-1.654-1.346-3-3-3H25	z M38,29c-1.105,0-2,0.895-2,2c0,1.105,0.895,2,2,2s2-0.895,2-2C40,29.895,39.105,29,38,29z M38,35c-1.105,0-2,0.895-2,2	s0.895,2,2,2s2-0.895,2-2S39.105,35,38,35z M38,41c-1.105,0-2,0.895-2,2s0.895,2,2,2s2-0.895,2-2S39.105,41,38,41z M50,55H14	c-2.757,0-5-2.243-5-5V14c0-2.757,2.243-5,5-5h36c2.757,0,5,2.243,5,5v36C55,52.757,52.757,55,50,55z M14,11c-1.654,0-3,1.346-3,3	v36c0,1.654,1.346,3,3,3h36c1.654,0,3-1.346,3-3V14c0-1.654-1.346-3-3-3H14z"/><linearGradient id="UywsLlSaArhSLUaMKbZjMg" x1="29" x2="29" y1="41" y2="45" gradientUnits="userSpaceOnUse"><stop offset="0" stop-color="#6dc7ff"/><stop offset="1" stop-color="#e6abff"/></linearGradient><path fill="url(#UywsLlSaArhSLUaMKbZjMg)" d="M32,41h-6c-1.105,0-2,0.895-2,2c0,1.105,0.895,2,2,2h6c1.105,0,2-0.895,2-2	C34,41.895,33.105,41,32,41z"/></svg>